<svg xmlns="http://www.w3.org/2000/svg" width="150" height="150" viewBox="0 0 150 150" fill="none">
    <mask id="mask0_1_11" style="mask-type:luminance" maskUnits="userSpaceOnUse" x="0" y="0" width="150" height="150">
        <path d="M150 0H0V150H150V0Z" fill="white"/>
    </mask>
    <g mask="url(#mask0_1_11)">
        <path d="M150 0H0V150H150V0Z" fill="#4A38FF"/>
        <path d="M63.6235 111.38L35.1703 40.8985C34.9608 40.3852 34.8758 39.8297 34.9222 39.2773C34.9687 38.7249 35.1452 38.1914 35.4375 37.7203C35.6692 37.2891 36.0198 36.9334 36.4478 36.6958C36.8758 36.4581 37.363 36.3484 37.8516 36.3797H52.3125C52.9356 36.366 53.5483 36.5409 54.0703 36.8813C54.6022 37.3597 55.0051 37.9642 55.2422 38.6391L73.7485 87.2578C73.8291 87.498 73.989 87.7036 74.202 87.8407C74.415 87.9779 74.6683 88.0385 74.9203 88.0125C75.1618 88.0372 75.4042 87.9747 75.6036 87.8363C75.8031 87.6979 75.9464 87.4927 76.0078 87.2578L94.6688 38.6391C94.9891 38.0092 95.3824 37.4192 95.8406 36.8813C96.326 36.5303 96.9157 36.3536 97.5141 36.3797H112.158C112.645 36.3657 113.128 36.4826 113.555 36.7184C113.982 36.9542 114.338 37.3002 114.586 37.7203C114.881 38.1923 115.052 38.7316 115.081 39.2876C115.111 39.8436 114.999 40.3979 114.755 40.8985L86.3016 111.38C86.1127 112.001 85.7393 112.549 85.2311 112.953C84.7228 113.356 84.1038 113.596 83.4563 113.639H66.4688C65.2969 113.616 64.3781 112.866 63.6235 111.38Z" fill="#00ECAA"/>
    </g>
</svg>
